<svg width="345" height="52" viewBox="0 0 345 52" fill="none" xmlns="http://www.w3.org/2000/svg">
<rect width="164" height="52" rx="10" fill="#FFE200"/>
<g clip-path="url(#clip0_3_721)">
<path d="M38.2219 28.6468C39.8422 27.6937 39.8422 25.3078 38.2219 24.3531L34.0125 21.875L29 26.5L34.0109 31.125L38.2219 28.6468ZM32.6047 31.9531L27.8484 27.5625L17.6094 37.0156C17.9234 38.6234 19.7344 39.5312 21.2078 38.664L32.6047 31.9531ZM17.5625 34.9312V18.0671L26.6969 26.5L17.5625 34.9312ZM17.6094 15.9843L27.8484 25.4375L32.6047 21.0468L21.2078 14.3359C19.7344 13.4671 17.9234 14.375 17.6094 15.9843Z" fill="#1E1E1E"/>
</g>
<path d="M57.1847 31.192C56.9287 30.7227 56.5767 30.3653 56.1287 30.12C55.6807 29.8747 55.158 29.752 54.5607 29.752C53.8994 29.752 53.3127 29.9013 52.8007 30.2C52.2887 30.4987 51.8887 30.9253 51.6007 31.48C51.3127 32.0347 51.1687 32.6747 51.1687 33.4C51.1687 34.1467 51.3127 34.7973 51.6007 35.352C51.8994 35.9067 52.31 36.3333 52.8327 36.632C53.3554 36.9307 53.9634 37.08 54.6567 37.08C55.51 37.08 56.2087 36.856 56.7527 36.408C57.2967 35.9493 57.654 35.3147 57.8247 34.504H53.9847V32.792H60.0327V34.744C59.8834 35.5227 59.5634 36.2427 59.0727 36.904C58.582 37.5653 57.9474 38.0987 57.1687 38.504C56.4007 38.8987 55.5367 39.096 54.5767 39.096C53.4994 39.096 52.5234 38.856 51.6487 38.376C50.7847 37.8853 50.102 37.208 49.6007 36.344C49.11 35.48 48.8647 34.4987 48.8647 33.4C48.8647 32.3013 49.11 31.32 49.6007 30.456C50.102 29.5813 50.7847 28.904 51.6487 28.424C52.5234 27.9333 53.494 27.688 54.5607 27.688C55.8194 27.688 56.9127 27.9973 57.8407 28.616C58.7687 29.224 59.4087 30.0827 59.7607 31.192H57.1847ZM65.6259 39.144C64.7726 39.144 64.0046 38.9573 63.3219 38.584C62.6393 38.2 62.1006 37.6613 61.7059 36.968C61.3219 36.2747 61.1299 35.4747 61.1299 34.568C61.1299 33.6613 61.3273 32.8613 61.7219 32.168C62.1273 31.4747 62.6766 30.9413 63.3699 30.568C64.0633 30.184 64.8366 29.992 65.6899 29.992C66.5433 29.992 67.3166 30.184 68.0099 30.568C68.7033 30.9413 69.2473 31.4747 69.6419 32.168C70.0473 32.8613 70.2499 33.6613 70.2499 34.568C70.2499 35.4747 70.0419 36.2747 69.6259 36.968C69.2206 37.6613 68.6659 38.2 67.9619 38.584C67.2686 38.9573 66.4899 39.144 65.6259 39.144ZM65.6259 37.192C66.0313 37.192 66.4099 37.096 66.7619 36.904C67.1246 36.7013 67.4126 36.4027 67.6259 36.008C67.8393 35.6133 67.9459 35.1333 67.9459 34.568C67.9459 33.7253 67.7219 33.08 67.2739 32.632C66.8366 32.1733 66.2979 31.944 65.6579 31.944C65.0179 31.944 64.4793 32.1733 64.0419 32.632C63.6153 33.08 63.4019 33.7253 63.4019 34.568C63.4019 35.4107 63.6099 36.0613 64.0259 36.52C64.4526 36.968 64.9859 37.192 65.6259 37.192ZM75.8291 39.144C74.9757 39.144 74.2077 38.9573 73.5251 38.584C72.8424 38.2 72.3037 37.6613 71.9091 36.968C71.5251 36.2747 71.3331 35.4747 71.3331 34.568C71.3331 33.6613 71.5304 32.8613 71.9251 32.168C72.3304 31.4747 72.8797 30.9413 73.5731 30.568C74.2664 30.184 75.0397 29.992 75.8931 29.992C76.7464 29.992 77.5197 30.184 78.2131 30.568C78.9064 30.9413 79.4504 31.4747 79.8451 32.168C80.2504 32.8613 80.4531 33.6613 80.4531 34.568C80.4531 35.4747 80.2451 36.2747 79.8291 36.968C79.4237 37.6613 78.8691 38.2 78.1651 38.584C77.4717 38.9573 76.6931 39.144 75.8291 39.144ZM75.8291 37.192C76.2344 37.192 76.6131 37.096 76.9651 36.904C77.3277 36.7013 77.6157 36.4027 77.8291 36.008C78.0424 35.6133 78.1491 35.1333 78.1491 34.568C78.1491 33.7253 77.9251 33.08 77.4771 32.632C77.0397 32.1733 76.5011 31.944 75.8611 31.944C75.2211 31.944 74.6824 32.1733 74.2451 32.632C73.8184 33.08 73.6051 33.7253 73.6051 34.568C73.6051 35.4107 73.8131 36.0613 74.2291 36.52C74.6557 36.968 75.1891 37.192 75.8291 37.192ZM85.5682 29.992C86.2295 29.992 86.8109 30.1253 87.3122 30.392C87.8135 30.648 88.2082 30.984 88.4962 31.4V30.136H90.7522V39.064C90.7522 39.8853 90.5869 40.616 90.2562 41.256C89.9255 41.9067 89.4295 42.4187 88.7682 42.792C88.1069 43.176 87.3069 43.368 86.3682 43.368C85.1095 43.368 84.0749 43.0747 83.2642 42.488C82.4642 41.9013 82.0109 41.1013 81.9042 40.088H84.1282C84.2455 40.4933 84.4962 40.8133 84.8802 41.048C85.2749 41.2933 85.7495 41.416 86.3042 41.416C86.9549 41.416 87.4829 41.2187 87.8882 40.824C88.2935 40.44 88.4962 39.8533 88.4962 39.064V37.688C88.2082 38.104 87.8082 38.4507 87.2962 38.728C86.7949 39.0053 86.2189 39.144 85.5682 39.144C84.8215 39.144 84.1389 38.952 83.5202 38.568C82.9015 38.184 82.4109 37.6453 82.0482 36.952C81.6962 36.248 81.5202 35.4427 81.5202 34.536C81.5202 33.64 81.6962 32.8453 82.0482 32.152C82.4109 31.4587 82.8962 30.9253 83.5042 30.552C84.1229 30.1787 84.8109 29.992 85.5682 29.992ZM88.4962 34.568C88.4962 34.024 88.3895 33.56 88.1762 33.176C87.9629 32.7813 87.6749 32.4827 87.3122 32.28C86.9495 32.0667 86.5602 31.96 86.1442 31.96C85.7282 31.96 85.3442 32.0613 84.9922 32.264C84.6402 32.4667 84.3522 32.7653 84.1282 33.16C83.9149 33.544 83.8082 34.0027 83.8082 34.536C83.8082 35.0693 83.9149 35.5387 84.1282 35.944C84.3522 36.3387 84.6402 36.6427 84.9922 36.856C85.3549 37.0693 85.7389 37.176 86.1442 37.176C86.5602 37.176 86.9495 37.0747 87.3122 36.872C87.6749 36.6587 87.9629 36.36 88.1762 35.976C88.3895 35.5813 88.4962 35.112 88.4962 34.568ZM95.1799 27.16V39H92.9399V27.16H95.1799ZM105.633 34.376C105.633 34.696 105.612 34.984 105.569 35.24H99.0891C99.1424 35.88 99.3664 36.3813 99.7611 36.744C100.156 37.1067 100.641 37.288 101.217 37.288C102.049 37.288 102.641 36.9307 102.993 36.216H105.409C105.153 37.0693 104.662 37.7733 103.937 38.328C103.212 38.872 102.321 39.144 101.265 39.144C100.412 39.144 99.6437 38.9573 98.9611 38.584C98.2891 38.2 97.7611 37.6613 97.3771 36.968C97.0037 36.2747 96.8171 35.4747 96.8171 34.568C96.8171 33.6507 97.0037 32.8453 97.3771 32.152C97.7504 31.4587 98.2731 30.9253 98.9451 30.552C99.6171 30.1787 100.39 29.992 101.265 29.992C102.108 29.992 102.86 30.1733 103.521 30.536C104.193 30.8987 104.71 31.416 105.073 32.088C105.446 32.7493 105.633 33.512 105.633 34.376ZM103.313 33.736C103.302 33.16 103.094 32.7013 102.689 32.36C102.284 32.008 101.788 31.832 101.201 31.832C100.646 31.832 100.177 32.0027 99.7931 32.344C99.4197 32.6747 99.1904 33.1387 99.1051 33.736H103.313ZM119.225 31.288C119.225 31.8853 119.081 32.4453 118.793 32.968C118.515 33.4907 118.073 33.912 117.465 34.232C116.867 34.552 116.11 34.712 115.193 34.712H113.321V39H111.081V27.832H115.193C116.057 27.832 116.793 27.9813 117.401 28.28C118.009 28.5787 118.462 28.9893 118.761 29.512C119.07 30.0347 119.225 30.6267 119.225 31.288ZM115.097 32.904C115.715 32.904 116.174 32.7653 116.473 32.488C116.771 32.2 116.921 31.8 116.921 31.288C116.921 30.2 116.313 29.656 115.097 29.656H113.321V32.904H115.097ZM123.055 27.16V39H120.815V27.16H123.055ZM124.692 34.536C124.692 33.64 124.868 32.8453 125.22 32.152C125.583 31.4587 126.068 30.9253 126.676 30.552C127.295 30.1787 127.983 29.992 128.74 29.992C129.401 29.992 129.977 30.1253 130.468 30.392C130.969 30.6587 131.369 30.9947 131.668 31.4V30.136H133.924V39H131.668V37.704C131.38 38.12 130.98 38.4667 130.468 38.744C129.967 39.0107 129.385 39.144 128.724 39.144C127.977 39.144 127.295 38.952 126.676 38.568C126.068 38.184 125.583 37.6453 125.22 36.952C124.868 36.248 124.692 35.4427 124.692 34.536ZM131.668 34.568C131.668 34.024 131.561 33.56 131.348 33.176C131.135 32.7813 130.847 32.4827 130.484 32.28C130.121 32.0667 129.732 31.96 129.316 31.96C128.9 31.96 128.516 32.0613 128.164 32.264C127.812 32.4667 127.524 32.7653 127.3 33.16C127.087 33.544 126.98 34.0027 126.98 34.536C126.98 35.0693 127.087 35.5387 127.3 35.944C127.524 36.3387 127.812 36.6427 128.164 36.856C128.527 37.0693 128.911 37.176 129.316 37.176C129.732 37.176 130.121 37.0747 130.484 36.872C130.847 36.6587 131.135 36.36 131.348 35.976C131.561 35.5813 131.668 35.112 131.668 34.568ZM144.592 30.136L139.104 43.192H136.72L138.64 38.776L135.088 30.136H137.6L139.888 36.328L142.208 30.136H144.592Z" fill="#1E1E1E"/>
<path d="M55.1223 16.05C54.9289 15.6433 54.6489 15.33 54.2823 15.11C53.9156 14.8833 53.4889 14.77 53.0023 14.77C52.5156 14.77 52.0756 14.8833 51.6823 15.11C51.2956 15.33 50.9889 15.65 50.7623 16.07C50.5423 16.4833 50.4323 16.9633 50.4323 17.51C50.4323 18.0567 50.5423 18.5367 50.7623 18.95C50.9889 19.3633 51.2956 19.6833 51.6823 19.91C52.0756 20.13 52.5156 20.24 53.0023 20.24C53.6823 20.24 54.2423 20.0367 54.6823 19.63C55.1223 19.2233 55.3789 18.6733 55.4523 17.98H52.6723V17.24H56.4223V17.94C56.3689 18.5133 56.1889 19.04 55.8823 19.52C55.5756 19.9933 55.1723 20.37 54.6723 20.65C54.1723 20.9233 53.6156 21.06 53.0023 21.06C52.3556 21.06 51.7656 20.91 51.2323 20.61C50.6989 20.3033 50.2756 19.88 49.9623 19.34C49.6556 18.8 49.5023 18.19 49.5023 17.51C49.5023 16.83 49.6556 16.22 49.9623 15.68C50.2756 15.1333 50.6989 14.71 51.2323 14.41C51.7656 14.1033 52.3556 13.95 53.0023 13.95C53.7423 13.95 54.3956 14.1333 54.9623 14.5C55.5356 14.8667 55.9523 15.3833 56.2123 16.05H55.1223ZM62.6255 18.05C62.6255 18.2233 62.6155 18.4067 62.5955 18.6H58.2155C58.2488 19.14 58.4321 19.5633 58.7655 19.87C59.1055 20.17 59.5155 20.32 59.9955 20.32C60.3888 20.32 60.7155 20.23 60.9755 20.05C61.2421 19.8633 61.4288 19.6167 61.5355 19.31H62.5155C62.3688 19.8367 62.0755 20.2667 61.6355 20.6C61.1955 20.9267 60.6488 21.09 59.9955 21.09C59.4755 21.09 59.0088 20.9733 58.5955 20.74C58.1888 20.5067 57.8688 20.1767 57.6355 19.75C57.4021 19.3167 57.2855 18.8167 57.2855 18.25C57.2855 17.6833 57.3988 17.1867 57.6255 16.76C57.8521 16.3333 58.1688 16.0067 58.5755 15.78C58.9888 15.5467 59.4621 15.43 59.9955 15.43C60.5155 15.43 60.9755 15.5433 61.3755 15.77C61.7755 15.9967 62.0821 16.31 62.2955 16.71C62.5155 17.1033 62.6255 17.55 62.6255 18.05ZM61.6855 17.86C61.6855 17.5133 61.6088 17.2167 61.4555 16.97C61.3021 16.7167 61.0921 16.5267 60.8255 16.4C60.5655 16.2667 60.2755 16.2 59.9555 16.2C59.4955 16.2 59.1021 16.3467 58.7755 16.64C58.4555 16.9333 58.2721 17.34 58.2255 17.86H61.6855ZM64.9366 16.27V19.5C64.9366 19.7667 64.9933 19.9567 65.1066 20.07C65.22 20.1767 65.4166 20.23 65.6966 20.23H66.3666V21H65.5466C65.04 21 64.66 20.8833 64.4066 20.65C64.1533 20.4167 64.0266 20.0333 64.0266 19.5V16.27H63.3166V15.52H64.0266V14.14H64.9366V15.52H66.3666V16.27H64.9366ZM70.6052 14.63C70.4319 14.63 70.2852 14.57 70.1652 14.45C70.0452 14.33 69.9852 14.1833 69.9852 14.01C69.9852 13.8367 70.0452 13.69 70.1652 13.57C70.2852 13.45 70.4319 13.39 70.6052 13.39C70.7719 13.39 70.9119 13.45 71.0252 13.57C71.1452 13.69 71.2052 13.8367 71.2052 14.01C71.2052 14.1833 71.1452 14.33 71.0252 14.45C70.9119 14.57 70.7719 14.63 70.6052 14.63ZM71.0452 15.52V21H70.1352V15.52H71.0452ZM73.7062 16.27V19.5C73.7062 19.7667 73.7628 19.9567 73.8762 20.07C73.9895 20.1767 74.1862 20.23 74.4662 20.23H75.1362V21H74.3162C73.8095 21 73.4295 20.8833 73.1762 20.65C72.9228 20.4167 72.7962 20.0333 72.7962 19.5V16.27H72.0862V15.52H72.7962V14.14H73.7062V15.52H75.1362V16.27H73.7062ZM81.2948 21.09C80.7814 21.09 80.3148 20.9733 79.8948 20.74C79.4814 20.5067 79.1548 20.1767 78.9148 19.75C78.6814 19.3167 78.5648 18.8167 78.5648 18.25C78.5648 17.69 78.6848 17.1967 78.9248 16.77C79.1714 16.3367 79.5048 16.0067 79.9248 15.78C80.3448 15.5467 80.8148 15.43 81.3348 15.43C81.8548 15.43 82.3248 15.5467 82.7448 15.78C83.1648 16.0067 83.4948 16.3333 83.7348 16.76C83.9814 17.1867 84.1048 17.6833 84.1048 18.25C84.1048 18.8167 83.9781 19.3167 83.7248 19.75C83.4781 20.1767 83.1414 20.5067 82.7148 20.74C82.2881 20.9733 81.8148 21.09 81.2948 21.09ZM81.2948 20.29C81.6214 20.29 81.9281 20.2133 82.2148 20.06C82.5014 19.9067 82.7314 19.6767 82.9048 19.37C83.0848 19.0633 83.1748 18.69 83.1748 18.25C83.1748 17.81 83.0881 17.4367 82.9148 17.13C82.7414 16.8233 82.5148 16.5967 82.2348 16.45C81.9548 16.2967 81.6514 16.22 81.3248 16.22C80.9914 16.22 80.6848 16.2967 80.4048 16.45C80.1314 16.5967 79.9114 16.8233 79.7448 17.13C79.5781 17.4367 79.4948 17.81 79.4948 18.25C79.4948 18.6967 79.5748 19.0733 79.7348 19.38C79.9014 19.6867 80.1214 19.9167 80.3948 20.07C80.6681 20.2167 80.9681 20.29 81.2948 20.29ZM87.9713 15.42C88.6379 15.42 89.1779 15.6233 89.5913 16.03C90.0046 16.43 90.2113 17.01 90.2113 17.77V21H89.3113V17.9C89.3113 17.3533 89.1746 16.9367 88.9013 16.65C88.6279 16.3567 88.2546 16.21 87.7813 16.21C87.3013 16.21 86.9179 16.36 86.6313 16.66C86.3513 16.96 86.2113 17.3967 86.2113 17.97V21H85.3013V15.52H86.2113V16.3C86.3913 16.02 86.6346 15.8033 86.9413 15.65C87.2546 15.4967 87.5979 15.42 87.9713 15.42Z" fill="#1E1E1E"/>
<rect x="181" width="164" height="52" rx="10" fill="#FFE200"/>
<path d="M240.225 36.872H235.777L235.041 39H232.689L236.705 27.816H239.313L243.329 39H240.961L240.225 36.872ZM239.617 35.08L238.001 30.408L236.385 35.08H239.617ZM247.071 31.416C247.359 31.0107 247.753 30.6747 248.255 30.408C248.767 30.1307 249.348 29.992 249.999 29.992C250.756 29.992 251.439 30.1787 252.047 30.552C252.665 30.9253 253.151 31.4587 253.503 32.152C253.865 32.8347 254.047 33.6293 254.047 34.536C254.047 35.4427 253.865 36.248 253.503 36.952C253.151 37.6453 252.665 38.184 252.047 38.568C251.439 38.952 250.756 39.144 249.999 39.144C249.348 39.144 248.772 39.0107 248.271 38.744C247.78 38.4773 247.38 38.1413 247.071 37.736V43.224H244.831V30.136H247.071V31.416ZM251.759 34.536C251.759 34.0027 251.647 33.544 251.423 33.16C251.209 32.7653 250.921 32.4667 250.559 32.264C250.207 32.0613 249.823 31.96 249.407 31.96C249.001 31.96 248.617 32.0667 248.255 32.28C247.903 32.4827 247.615 32.7813 247.391 33.176C247.177 33.5707 247.071 34.0347 247.071 34.568C247.071 35.1013 247.177 35.5653 247.391 35.96C247.615 36.3547 247.903 36.6587 248.255 36.872C248.617 37.0747 249.001 37.176 249.407 37.176C249.823 37.176 250.207 37.0693 250.559 36.856C250.921 36.6427 251.209 36.3387 251.423 35.944C251.647 35.5493 251.759 35.08 251.759 34.536ZM257.914 31.416C258.202 31.0107 258.597 30.6747 259.098 30.408C259.61 30.1307 260.192 29.992 260.842 29.992C261.6 29.992 262.282 30.1787 262.89 30.552C263.509 30.9253 263.994 31.4587 264.346 32.152C264.709 32.8347 264.89 33.6293 264.89 34.536C264.89 35.4427 264.709 36.248 264.346 36.952C263.994 37.6453 263.509 38.184 262.89 38.568C262.282 38.952 261.6 39.144 260.842 39.144C260.192 39.144 259.616 39.0107 259.114 38.744C258.624 38.4773 258.224 38.1413 257.914 37.736V43.224H255.674V30.136H257.914V31.416ZM262.602 34.536C262.602 34.0027 262.49 33.544 262.266 33.16C262.053 32.7653 261.765 32.4667 261.402 32.264C261.05 32.0613 260.666 31.96 260.25 31.96C259.845 31.96 259.461 32.0667 259.098 32.28C258.746 32.4827 258.458 32.7813 258.234 33.176C258.021 33.5707 257.914 34.0347 257.914 34.568C257.914 35.1013 258.021 35.5653 258.234 35.96C258.458 36.3547 258.746 36.6587 259.098 36.872C259.461 37.0747 259.845 37.176 260.25 37.176C260.666 37.176 261.05 37.0693 261.402 36.856C261.765 36.6427 262.053 36.3387 262.266 35.944C262.49 35.5493 262.602 35.08 262.602 34.536ZM274.187 39.112C273.408 39.112 272.704 38.9787 272.075 38.712C271.456 38.4453 270.965 38.0613 270.603 37.56C270.24 37.0587 270.053 36.4667 270.043 35.784H272.443C272.475 36.2427 272.635 36.6053 272.923 36.872C273.221 37.1387 273.627 37.272 274.139 37.272C274.661 37.272 275.072 37.1493 275.371 36.904C275.669 36.648 275.819 36.3173 275.819 35.912C275.819 35.5813 275.717 35.3093 275.515 35.096C275.312 34.8827 275.056 34.7173 274.747 34.6C274.448 34.472 274.032 34.3333 273.499 34.184C272.773 33.9707 272.181 33.7627 271.723 33.56C271.275 33.3467 270.885 33.032 270.555 32.616C270.235 32.1893 270.075 31.624 270.075 30.92C270.075 30.2587 270.24 29.6827 270.571 29.192C270.901 28.7013 271.365 28.328 271.963 28.072C272.56 27.8053 273.243 27.672 274.011 27.672C275.163 27.672 276.096 27.9547 276.811 28.52C277.536 29.0747 277.936 29.8533 278.011 30.856H275.547C275.525 30.472 275.36 30.1573 275.051 29.912C274.752 29.656 274.352 29.528 273.851 29.528C273.413 29.528 273.061 29.64 272.795 29.864C272.539 30.088 272.411 30.4133 272.411 30.84C272.411 31.1387 272.507 31.3893 272.699 31.592C272.901 31.784 273.147 31.944 273.435 32.072C273.733 32.1893 274.149 32.328 274.683 32.488C275.408 32.7013 276 32.9147 276.459 33.128C276.917 33.3413 277.312 33.6613 277.643 34.088C277.973 34.5147 278.139 35.0747 278.139 35.768C278.139 36.3653 277.984 36.92 277.675 37.432C277.365 37.944 276.912 38.3547 276.315 38.664C275.717 38.9627 275.008 39.112 274.187 39.112ZM282.689 31.976V36.264C282.689 36.5627 282.758 36.7813 282.897 36.92C283.046 37.048 283.291 37.112 283.633 37.112H284.673V39H283.265C281.377 39 280.433 38.0827 280.433 36.248V31.976H279.377V30.136H280.433V27.944H282.689V30.136H284.673V31.976H282.689ZM290.22 39.144C289.366 39.144 288.598 38.9573 287.916 38.584C287.233 38.2 286.694 37.6613 286.3 36.968C285.916 36.2747 285.724 35.4747 285.724 34.568C285.724 33.6613 285.921 32.8613 286.316 32.168C286.721 31.4747 287.27 30.9413 287.964 30.568C288.657 30.184 289.43 29.992 290.284 29.992C291.137 29.992 291.91 30.184 292.604 30.568C293.297 30.9413 293.841 31.4747 294.236 32.168C294.641 32.8613 294.844 33.6613 294.844 34.568C294.844 35.4747 294.636 36.2747 294.22 36.968C293.814 37.6613 293.26 38.2 292.556 38.584C291.862 38.9573 291.084 39.144 290.22 39.144ZM290.22 37.192C290.625 37.192 291.004 37.096 291.356 36.904C291.718 36.7013 292.006 36.4027 292.22 36.008C292.433 35.6133 292.54 35.1333 292.54 34.568C292.54 33.7253 292.316 33.08 291.868 32.632C291.43 32.1733 290.892 31.944 290.252 31.944C289.612 31.944 289.073 32.1733 288.636 32.632C288.209 33.08 287.996 33.7253 287.996 34.568C287.996 35.4107 288.204 36.0613 288.62 36.52C289.046 36.968 289.58 37.192 290.22 37.192ZM298.727 31.512C299.015 31.0427 299.388 30.6747 299.847 30.408C300.316 30.1413 300.849 30.008 301.447 30.008V32.36H300.855C300.151 32.36 299.617 32.5253 299.255 32.856C298.903 33.1867 298.727 33.7627 298.727 34.584V39H296.487V30.136H298.727V31.512ZM311.196 34.376C311.196 34.696 311.174 34.984 311.132 35.24H304.652C304.705 35.88 304.929 36.3813 305.324 36.744C305.718 37.1067 306.204 37.288 306.78 37.288C307.612 37.288 308.204 36.9307 308.556 36.216H310.972C310.716 37.0693 310.225 37.7733 309.5 38.328C308.774 38.872 307.884 39.144 306.828 39.144C305.974 39.144 305.206 38.9573 304.524 38.584C303.852 38.2 303.324 37.6613 302.94 36.968C302.566 36.2747 302.38 35.4747 302.38 34.568C302.38 33.6507 302.566 32.8453 302.94 32.152C303.313 31.4587 303.836 30.9253 304.508 30.552C305.18 30.1787 305.953 29.992 306.828 29.992C307.67 29.992 308.422 30.1733 309.084 30.536C309.756 30.8987 310.273 31.416 310.636 32.088C311.009 32.7493 311.196 33.512 311.196 34.376ZM308.876 33.736C308.865 33.16 308.657 32.7013 308.252 32.36C307.846 32.008 307.35 31.832 306.764 31.832C306.209 31.832 305.74 32.0027 305.356 32.344C304.982 32.6747 304.753 33.1387 304.668 33.736H308.876Z" fill="#1E1E1E"/>
<path d="M238.038 14.03C238.798 14.03 239.454 14.1733 240.008 14.46C240.568 14.74 240.994 15.1433 241.288 15.67C241.588 16.1967 241.738 16.8167 241.738 17.53C241.738 18.2433 241.588 18.8633 241.288 19.39C240.994 19.91 240.568 20.31 240.008 20.59C239.454 20.8633 238.798 21 238.038 21H235.868V14.03H238.038ZM238.038 20.25C238.938 20.25 239.624 20.0133 240.098 19.54C240.571 19.06 240.808 18.39 240.808 17.53C240.808 16.6633 240.568 15.9867 240.088 15.5C239.614 15.0133 238.931 14.77 238.038 14.77H236.778V20.25H238.038ZM245.328 21.09C244.815 21.09 244.348 20.9733 243.928 20.74C243.515 20.5067 243.188 20.1767 242.948 19.75C242.715 19.3167 242.598 18.8167 242.598 18.25C242.598 17.69 242.718 17.1967 242.958 16.77C243.205 16.3367 243.538 16.0067 243.958 15.78C244.378 15.5467 244.848 15.43 245.368 15.43C245.888 15.43 246.358 15.5467 246.778 15.78C247.198 16.0067 247.528 16.3333 247.768 16.76C248.015 17.1867 248.138 17.6833 248.138 18.25C248.138 18.8167 248.011 19.3167 247.758 19.75C247.511 20.1767 247.175 20.5067 246.748 20.74C246.321 20.9733 245.848 21.09 245.328 21.09ZM245.328 20.29C245.655 20.29 245.961 20.2133 246.248 20.06C246.535 19.9067 246.765 19.6767 246.938 19.37C247.118 19.0633 247.208 18.69 247.208 18.25C247.208 17.81 247.121 17.4367 246.948 17.13C246.775 16.8233 246.548 16.5967 246.268 16.45C245.988 16.2967 245.685 16.22 245.358 16.22C245.025 16.22 244.718 16.2967 244.438 16.45C244.165 16.5967 243.945 16.8233 243.778 17.13C243.611 17.4367 243.528 17.81 243.528 18.25C243.528 18.6967 243.608 19.0733 243.768 19.38C243.935 19.6867 244.155 19.9167 244.428 20.07C244.701 20.2167 245.001 20.29 245.328 20.29ZM256.634 15.52L254.924 21H253.984L252.664 16.65L251.344 21H250.404L248.684 15.52H249.614L250.874 20.12L252.234 15.52H253.164L254.494 20.13L255.734 15.52H256.634ZM260.208 15.42C260.874 15.42 261.414 15.6233 261.828 16.03C262.241 16.43 262.448 17.01 262.448 17.77V21H261.548V17.9C261.548 17.3533 261.411 16.9367 261.138 16.65C260.864 16.3567 260.491 16.21 260.018 16.21C259.538 16.21 259.154 16.36 258.868 16.66C258.588 16.96 258.448 17.3967 258.448 17.97V21H257.538V15.52H258.448V16.3C258.628 16.02 258.871 15.8033 259.178 15.65C259.491 15.4967 259.834 15.42 260.208 15.42ZM264.844 13.6V21H263.934V13.6H264.844ZM268.785 21.09C268.272 21.09 267.805 20.9733 267.385 20.74C266.972 20.5067 266.645 20.1767 266.405 19.75C266.172 19.3167 266.055 18.8167 266.055 18.25C266.055 17.69 266.175 17.1967 266.415 16.77C266.662 16.3367 266.995 16.0067 267.415 15.78C267.835 15.5467 268.305 15.43 268.825 15.43C269.345 15.43 269.815 15.5467 270.235 15.78C270.655 16.0067 270.985 16.3333 271.225 16.76C271.472 17.1867 271.595 17.6833 271.595 18.25C271.595 18.8167 271.468 19.3167 271.215 19.75C270.968 20.1767 270.632 20.5067 270.205 20.74C269.778 20.9733 269.305 21.09 268.785 21.09ZM268.785 20.29C269.112 20.29 269.418 20.2133 269.705 20.06C269.992 19.9067 270.222 19.6767 270.395 19.37C270.575 19.0633 270.665 18.69 270.665 18.25C270.665 17.81 270.578 17.4367 270.405 17.13C270.232 16.8233 270.005 16.5967 269.725 16.45C269.445 16.2967 269.142 16.22 268.815 16.22C268.482 16.22 268.175 16.2967 267.895 16.45C267.622 16.5967 267.402 16.8233 267.235 17.13C267.068 17.4367 266.985 17.81 266.985 18.25C266.985 18.6967 267.065 19.0733 267.225 19.38C267.392 19.6867 267.612 19.9167 267.885 20.07C268.158 20.2167 268.458 20.29 268.785 20.29ZM272.451 18.24C272.451 17.68 272.565 17.19 272.791 16.77C273.018 16.3433 273.328 16.0133 273.721 15.78C274.121 15.5467 274.565 15.43 275.051 15.43C275.531 15.43 275.948 15.5333 276.301 15.74C276.655 15.9467 276.918 16.2067 277.091 16.52V15.52H278.011V21H277.091V19.98C276.911 20.3 276.641 20.5667 276.281 20.78C275.928 20.9867 275.515 21.09 275.041 21.09C274.555 21.09 274.115 20.97 273.721 20.73C273.328 20.49 273.018 20.1533 272.791 19.72C272.565 19.2867 272.451 18.7933 272.451 18.24ZM277.091 18.25C277.091 17.8367 277.008 17.4767 276.841 17.17C276.675 16.8633 276.448 16.63 276.161 16.47C275.881 16.3033 275.571 16.22 275.231 16.22C274.891 16.22 274.581 16.3 274.301 16.46C274.021 16.62 273.798 16.8533 273.631 17.16C273.465 17.4667 273.381 17.8267 273.381 18.24C273.381 18.66 273.465 19.0267 273.631 19.34C273.798 19.6467 274.021 19.8833 274.301 20.05C274.581 20.21 274.891 20.29 275.231 20.29C275.571 20.29 275.881 20.21 276.161 20.05C276.448 19.8833 276.675 19.6467 276.841 19.34C277.008 19.0267 277.091 18.6633 277.091 18.25ZM279.209 18.24C279.209 17.68 279.323 17.19 279.549 16.77C279.776 16.3433 280.086 16.0133 280.479 15.78C280.879 15.5467 281.326 15.43 281.819 15.43C282.246 15.43 282.643 15.53 283.009 15.73C283.376 15.9233 283.656 16.18 283.849 16.5V13.6H284.769V21H283.849V19.97C283.669 20.2967 283.403 20.5667 283.049 20.78C282.696 20.9867 282.283 21.09 281.809 21.09C281.323 21.09 280.879 20.97 280.479 20.73C280.086 20.49 279.776 20.1533 279.549 19.72C279.323 19.2867 279.209 18.7933 279.209 18.24ZM283.849 18.25C283.849 17.8367 283.766 17.4767 283.599 17.17C283.433 16.8633 283.206 16.63 282.919 16.47C282.639 16.3033 282.329 16.22 281.989 16.22C281.649 16.22 281.339 16.3 281.059 16.46C280.779 16.62 280.556 16.8533 280.389 17.16C280.223 17.4667 280.139 17.8267 280.139 18.24C280.139 18.66 280.223 19.0267 280.389 19.34C280.556 19.6467 280.779 19.8833 281.059 20.05C281.339 20.21 281.649 20.29 281.989 20.29C282.329 20.29 282.639 20.21 282.919 20.05C283.206 19.8833 283.433 19.6467 283.599 19.34C283.766 19.0267 283.849 18.6633 283.849 18.25ZM291.363 21.09C290.85 21.09 290.383 20.9733 289.963 20.74C289.55 20.5067 289.223 20.1767 288.983 19.75C288.75 19.3167 288.633 18.8167 288.633 18.25C288.633 17.69 288.753 17.1967 288.993 16.77C289.24 16.3367 289.573 16.0067 289.993 15.78C290.413 15.5467 290.883 15.43 291.403 15.43C291.923 15.43 292.393 15.5467 292.813 15.78C293.233 16.0067 293.563 16.3333 293.803 16.76C294.05 17.1867 294.173 17.6833 294.173 18.25C294.173 18.8167 294.046 19.3167 293.793 19.75C293.546 20.1767 293.21 20.5067 292.783 20.74C292.356 20.9733 291.883 21.09 291.363 21.09ZM291.363 20.29C291.69 20.29 291.996 20.2133 292.283 20.06C292.57 19.9067 292.8 19.6767 292.973 19.37C293.153 19.0633 293.243 18.69 293.243 18.25C293.243 17.81 293.156 17.4367 292.983 17.13C292.81 16.8233 292.583 16.5967 292.303 16.45C292.023 16.2967 291.72 16.22 291.393 16.22C291.06 16.22 290.753 16.2967 290.473 16.45C290.2 16.5967 289.98 16.8233 289.813 17.13C289.646 17.4367 289.563 17.81 289.563 18.25C289.563 18.6967 289.643 19.0733 289.803 19.38C289.97 19.6867 290.19 19.9167 290.463 20.07C290.736 20.2167 291.036 20.29 291.363 20.29ZM298.04 15.42C298.706 15.42 299.246 15.6233 299.66 16.03C300.073 16.43 300.28 17.01 300.28 17.77V21H299.38V17.9C299.38 17.3533 299.243 16.9367 298.97 16.65C298.696 16.3567 298.323 16.21 297.85 16.21C297.37 16.21 296.986 16.36 296.7 16.66C296.42 16.96 296.28 17.3967 296.28 17.97V21H295.37V15.52H296.28V16.3C296.46 16.02 296.703 15.8033 297.01 15.65C297.323 15.4967 297.666 15.42 298.04 15.42ZM305.542 16.27V19.5C305.542 19.7667 305.599 19.9567 305.712 20.07C305.825 20.1767 306.022 20.23 306.302 20.23H306.972V21H306.152C305.645 21 305.265 20.8833 305.012 20.65C304.759 20.4167 304.632 20.0333 304.632 19.5V16.27H303.922V15.52H304.632V14.14H305.542V15.52H306.972V16.27H305.542ZM310.795 15.42C311.208 15.42 311.581 15.51 311.915 15.69C312.248 15.8633 312.508 16.1267 312.695 16.48C312.888 16.8333 312.985 17.2633 312.985 17.77V21H312.085V17.9C312.085 17.3533 311.948 16.9367 311.675 16.65C311.401 16.3567 311.028 16.21 310.555 16.21C310.075 16.21 309.691 16.36 309.405 16.66C309.125 16.96 308.985 17.3967 308.985 17.97V21H308.075V13.6H308.985V16.3C309.165 16.02 309.411 15.8033 309.725 15.65C310.045 15.4967 310.401 15.42 310.795 15.42ZM319.471 18.05C319.471 18.2233 319.461 18.4067 319.441 18.6H315.061C315.095 19.14 315.278 19.5633 315.611 19.87C315.951 20.17 316.361 20.32 316.841 20.32C317.235 20.32 317.561 20.23 317.821 20.05C318.088 19.8633 318.275 19.6167 318.381 19.31H319.361C319.215 19.8367 318.921 20.2667 318.481 20.6C318.041 20.9267 317.495 21.09 316.841 21.09C316.321 21.09 315.855 20.9733 315.441 20.74C315.035 20.5067 314.715 20.1767 314.481 19.75C314.248 19.3167 314.131 18.8167 314.131 18.25C314.131 17.6833 314.245 17.1867 314.471 16.76C314.698 16.3333 315.015 16.0067 315.421 15.78C315.835 15.5467 316.308 15.43 316.841 15.43C317.361 15.43 317.821 15.5433 318.221 15.77C318.621 15.9967 318.928 16.31 319.141 16.71C319.361 17.1033 319.471 17.55 319.471 18.05ZM318.531 17.86C318.531 17.5133 318.455 17.2167 318.301 16.97C318.148 16.7167 317.938 16.5267 317.671 16.4C317.411 16.2667 317.121 16.2 316.801 16.2C316.341 16.2 315.948 16.3467 315.621 16.64C315.301 16.9333 315.118 17.34 315.071 17.86H318.531Z" fill="#1E1E1E"/>
<g clip-path="url(#clip1_3_721)">
<path d="M215.472 13.0125C215.419 12.9531 213.505 13.0359 211.839 14.8438C210.173 16.65 210.43 18.7219 210.467 18.775C210.505 18.8281 212.842 18.9109 214.334 16.8094C215.826 14.7078 215.525 13.0734 215.472 13.0125ZM220.65 31.3453C220.575 31.1953 217.017 29.4172 217.348 25.9984C217.68 22.5797 219.966 21.6406 220.001 21.5391C220.037 21.4375 219.069 20.3047 218.042 19.7313C217.288 19.3274 216.454 19.0957 215.6 19.0531C215.431 19.0484 214.845 18.9047 213.641 19.2344C212.847 19.4516 211.058 20.1547 210.566 20.1828C210.072 20.2109 208.603 19.3672 207.023 19.1438C206.012 18.9484 204.941 19.3484 204.173 19.6563C203.408 19.9625 201.951 20.8344 200.933 23.1516C199.914 25.4672 200.447 29.136 200.828 30.2766C201.209 31.4172 201.805 33.2828 202.817 34.6453C203.717 36.1828 204.911 37.25 205.409 37.6125C205.908 37.975 207.314 38.2156 208.289 37.7172C209.073 37.236 210.489 36.9594 211.048 36.9797C211.606 37 212.706 37.2203 213.833 37.8219C214.725 38.1297 215.569 38.0016 216.414 37.6578C217.259 37.3125 218.483 36.0031 219.911 33.3484C220.452 32.1141 220.699 31.4464 220.65 31.3453Z" fill="#1E1E1E"/>
<path d="M215.472 13.0125C215.419 12.9531 213.505 13.0359 211.839 14.8438C210.173 16.65 210.43 18.7219 210.467 18.775C210.505 18.8281 212.842 18.9109 214.334 16.8094C215.826 14.7078 215.525 13.0734 215.472 13.0125ZM220.65 31.3453C220.575 31.1953 217.017 29.4172 217.348 25.9984C217.68 22.5797 219.966 21.6406 220.001 21.5391C220.037 21.4375 219.069 20.3047 218.042 19.7313C217.288 19.3274 216.454 19.0957 215.6 19.0531C215.431 19.0484 214.845 18.9047 213.641 19.2344C212.847 19.4516 211.058 20.1547 210.566 20.1828C210.072 20.2109 208.603 19.3672 207.023 19.1438C206.012 18.9484 204.941 19.3484 204.173 19.6563C203.408 19.9625 201.951 20.8344 200.933 23.1516C199.914 25.4672 200.447 29.136 200.828 30.2766C201.209 31.4172 201.805 33.2828 202.817 34.6453C203.717 36.1828 204.911 37.25 205.409 37.6125C205.908 37.975 207.314 38.2156 208.289 37.7172C209.073 37.236 210.489 36.9594 211.048 36.9797C211.606 37 212.706 37.2203 213.833 37.8219C214.725 38.1297 215.569 38.0016 216.414 37.6578C217.259 37.3125 218.483 36.0031 219.911 33.3484C220.452 32.1141 220.699 31.4464 220.65 31.3453Z" fill="#1E1E1E"/>
</g>
<defs>
<clipPath id="clip0_3_721">
<rect width="25" height="25" fill="white" transform="translate(16 14)"/>
</clipPath>
<clipPath id="clip1_3_721">
<rect width="25" height="25" fill="white" transform="translate(198 13)"/>
</clipPath>
</defs>
</svg>
