<svg xmlns="http://www.w3.org/2000/svg" width="41" height="41" fill="none" viewBox="0 0 41 41"><path fill="#FFE200" d="M27.658 3.41669H13.3422C7.12383 3.41669 3.41675 7.12377 3.41675 13.3421V27.6409C3.41675 33.8763 7.12383 37.5834 13.3422 37.5834H27.6409C33.8592 37.5834 37.5663 33.8763 37.5663 27.6579V13.3421C37.5834 7.12377 33.8763 3.41669 27.658 3.41669ZM29.6397 15.4604L25.6422 28.3413C24.6855 31.3992 20.3976 31.4504 19.3897 28.4096L18.1938 24.8734C17.8692 23.8996 17.1005 23.1138 16.1267 22.8063L12.5734 21.6104C9.56675 20.6025 9.60091 16.2804 12.6588 15.3579L25.5397 11.3434C28.068 10.5746 30.4426 12.9492 29.6397 15.4604Z"/></svg>